<svg width="78" height="32" viewBox="0 0 78 32" fill="none" xmlns="http://www.w3.org/2000/svg">
<path fill-rule="evenodd" clip-rule="evenodd" d="M12.1183 24.2367C5.42557 24.2367 0 18.8111 0 12.1183C0 5.42557 5.42557 0 12.1183 0C18.8111 0 24.2367 5.42557 24.2367 12.1183V28.213L17.7988 25.3728V22.8256C16.1045 23.7263 14.171 24.2367 12.1183 24.2367ZM12.1183 17.7988C15.2556 17.7988 17.7988 15.2556 17.7988 12.1183C17.7988 8.9811 15.2556 6.43787 12.1183 6.43787C8.9811 6.43787 6.43787 8.9811 6.43787 12.1183C6.43787 15.2556 8.9811 17.7988 12.1183 17.7988Z" fill="#B6B6B6"/>
<path fill-rule="evenodd" clip-rule="evenodd" d="M38.6272 24.2367C45.32 24.2367 50.7456 18.8111 50.7456 12.1183C50.7456 5.42557 45.32 0 38.6272 0C31.9344 0 26.5089 5.42557 26.5089 12.1183V29.1598L32.9467 32V22.8256C34.6411 23.7263 36.5745 24.2367 38.6272 24.2367ZM38.6272 17.7988C35.49 17.7988 32.9467 15.2556 32.9467 12.1183C32.9467 8.9811 35.49 6.43787 38.6272 6.43787C41.7645 6.43787 44.3077 8.9811 44.3077 12.1183C44.3077 15.2556 41.7645 17.7988 38.6272 17.7988Z" fill="#B6B6B6"/>
<path fill-rule="evenodd" clip-rule="evenodd" d="M65.1361 24.2367C71.8289 24.2367 77.2544 18.8111 77.2544 12.1183C77.2544 5.42557 71.8289 0 65.1361 0C58.4433 0 53.0178 5.42557 53.0178 12.1183V29.1598L59.4556 32V22.8256C61.1499 23.7263 63.0834 24.2367 65.1361 24.2367ZM65.1361 17.7988C61.9989 17.7988 59.4556 15.2556 59.4556 12.1183C59.4556 8.9811 61.9989 6.43787 65.1361 6.43787C68.2733 6.43787 70.8166 8.9811 70.8166 12.1183C70.8166 15.2556 68.2733 17.7988 65.1361 17.7988Z" fill="#B6B6B6"/>
</svg>
