<svg width="60" height="32" viewBox="0 0 60 32" fill="none" xmlns="http://www.w3.org/2000/svg">
<path fill-rule="evenodd" clip-rule="evenodd" d="M10.1429 22.1775C5.0934 22.1775 1 18.1083 1 13.0888C1 8.06918 5.0934 4 10.1429 4C15.1923 4 19.2857 8.06918 19.2857 13.0888V25.1598L14.4286 23.0296V21.1192C13.1503 21.7947 11.6915 22.1775 10.1429 22.1775ZM10.1429 17.3491C12.5098 17.3491 14.4286 15.4417 14.4286 13.0888C14.4286 10.7358 12.5098 8.8284 10.1429 8.8284C7.77592 8.8284 5.85714 10.7358 5.85714 13.0888C5.85714 15.4417 7.77592 17.3491 10.1429 17.3491Z" fill="white"/>
<path fill-rule="evenodd" clip-rule="evenodd" d="M30.1429 22.1775C35.1923 22.1775 39.2857 18.1083 39.2857 13.0888C39.2857 8.06918 35.1923 4 30.1429 4C25.0934 4 21 8.06918 21 13.0888V25.8698L25.8571 28V21.1192C27.1354 21.7947 28.5942 22.1775 30.1429 22.1775ZM30.1429 17.3491C27.7759 17.3491 25.8571 15.4417 25.8571 13.0888C25.8571 10.7358 27.7759 8.8284 30.1429 8.8284C32.5098 8.8284 34.4286 10.7358 34.4286 13.0888C34.4286 15.4417 32.5098 17.3491 30.1429 17.3491Z" fill="white"/>
<path fill-rule="evenodd" clip-rule="evenodd" d="M50.1428 22.1775C55.1923 22.1775 59.2857 18.1083 59.2857 13.0888C59.2857 8.06918 55.1923 4 50.1428 4C45.0934 4 41 8.06918 41 13.0888V25.8698L45.8571 28V21.1192C47.1354 21.7947 48.5942 22.1775 50.1428 22.1775ZM50.1428 17.3491C47.7759 17.3491 45.8571 15.4417 45.8571 13.0888C45.8571 10.7358 47.7759 8.8284 50.1428 8.8284C52.5098 8.8284 54.4286 10.7358 54.4286 13.0888C54.4286 15.4417 52.5098 17.3491 50.1428 17.3491Z" fill="white"/>
</svg>
